<svg xmlns="http://www.w3.org/2000/svg" width="400" height="300" viewBox="0 0 400 300">
  <defs>
    <linearGradient id="bg" x1="0%" y1="0%" x2="100%" y2="100%">
      <stop offset="0%" style="stop-color:#667eea"/>
      <stop offset="100%" style="stop-color:#764ba2"/>
    </linearGradient>
  </defs>
  <rect width="400" height="300" fill="url(#bg)"/>
  <!-- Building -->
  <rect x="140" y="60" width="120" height="180" rx="4" fill="none" stroke="white" stroke-width="3"/>
  <rect x="155" y="75" width="20" height="20" rx="2" fill="rgba(255,255,255,0.5)"/>
  <rect x="190" y="75" width="20" height="20" rx="2" fill="rgba(255,255,255,0.5)"/>
  <rect x="225" y="75" width="20" height="20" rx="2" fill="rgba(255,255,255,0.5)"/>
  <rect x="155" y="110" width="20" height="20" rx="2" fill="rgba(255,255,255,0.5)"/>
  <rect x="190" y="110" width="20" height="20" rx="2" fill="rgba(255,255,255,0.5)"/>
  <rect x="225" y="110" width="20" height="20" rx="2" fill="rgba(255,255,255,0.5)"/>
  <rect x="155" y="145" width="20" height="20" rx="2" fill="rgba(255,255,255,0.5)"/>
  <rect x="190" y="145" width="20" height="20" rx="2" fill="rgba(255,255,255,0.5)"/>
  <rect x="225" y="145" width="20" height="20" rx="2" fill="rgba(255,255,255,0.5)"/>
  <rect x="185" y="200" width="30" height="40" rx="2" fill="rgba(255,255,255,0.5)"/>
  <text x="200" y="280" text-anchor="middle" fill="white" font-family="Arial, sans-serif" font-size="22" font-weight="bold">Квартира</text>
</svg>
