<svg xmlns="http://www.w3.org/2000/svg" width="400" height="300" viewBox="0 0 400 300">
  <defs>
    <linearGradient id="bg" x1="0%" y1="0%" x2="100%" y2="100%">
      <stop offset="0%" style="stop-color:#4facfe"/>
      <stop offset="100%" style="stop-color:#00f2fe"/>
    </linearGradient>
  </defs>
  <rect width="400" height="300" fill="url(#bg)"/>
  <!-- Building -->
  <rect x="120" y="40" width="160" height="200" rx="4" fill="none" stroke="white" stroke-width="3"/>
  <!-- Windows grid -->
  <rect x="138" y="55" width="22" height="22" rx="2" fill="rgba(255,255,255,0.5)"/>
  <rect x="170" y="55" width="22" height="22" rx="2" fill="rgba(255,255,255,0.5)"/>
  <rect x="202" y="55" width="22" height="22" rx="2" fill="rgba(255,255,255,0.5)"/>
  <rect x="234" y="55" width="22" height="22" rx="2" fill="rgba(255,255,255,0.5)"/>
  <rect x="138" y="90" width="22" height="22" rx="2" fill="rgba(255,255,255,0.5)"/>
  <rect x="170" y="90" width="22" height="22" rx="2" fill="rgba(255,255,255,0.5)"/>
  <rect x="202" y="90" width="22" height="22" rx="2" fill="rgba(255,255,255,0.5)"/>
  <rect x="234" y="90" width="22" height="22" rx="2" fill="rgba(255,255,255,0.5)"/>
  <rect x="138" y="125" width="22" height="22" rx="2" fill="rgba(255,255,255,0.5)"/>
  <rect x="170" y="125" width="22" height="22" rx="2" fill="rgba(255,255,255,0.5)"/>
  <rect x="202" y="125" width="22" height="22" rx="2" fill="rgba(255,255,255,0.5)"/>
  <rect x="234" y="125" width="22" height="22" rx="2" fill="rgba(255,255,255,0.5)"/>
  <rect x="138" y="160" width="22" height="22" rx="2" fill="rgba(255,255,255,0.5)"/>
  <rect x="170" y="160" width="22" height="22" rx="2" fill="rgba(255,255,255,0.5)"/>
  <rect x="202" y="160" width="22" height="22" rx="2" fill="rgba(255,255,255,0.5)"/>
  <rect x="234" y="160" width="22" height="22" rx="2" fill="rgba(255,255,255,0.5)"/>
  <!-- Door -->
  <rect x="180" y="200" width="40" height="40" rx="2" fill="rgba(255,255,255,0.5)"/>
  <text x="200" y="280" text-anchor="middle" fill="white" font-family="Arial, sans-serif" font-size="22" font-weight="bold">Офис</text>
</svg>
