<svg xmlns="http://www.w3.org/2000/svg" width="280" height="120" viewBox="0 0 280 120">
  <rect width="280" height="120" fill="none"/>
  <!-- Clipboard -->
  <rect x="95" y="20" width="90" height="90" rx="8" fill="#f0f0ff" stroke="#667eea" stroke-width="2"/>
  <!-- Clipboard clip -->
  <rect x="120" y="14" width="40" height="14" rx="4" fill="#667eea"/>
  <rect x="128" y="11" width="24" height="10" rx="3" fill="#e8edff" stroke="#667eea" stroke-width="1.5"/>
  <!-- Check lines -->
  <line x1="112" y1="48" x2="160" y2="48" stroke="#ccc" stroke-width="2" stroke-linecap="round"/>
  <line x1="112" y1="60" x2="155" y2="60" stroke="#ccc" stroke-width="2" stroke-linecap="round"/>
  <line x1="112" y1="72" x2="162" y2="72" stroke="#ccc" stroke-width="2" stroke-linecap="round"/>
  <line x1="112" y1="84" x2="148" y2="84" stroke="#ccc" stroke-width="2" stroke-linecap="round"/>
  <!-- Checkmarks -->
  <polyline points="105,47 107,50 112,44" fill="none" stroke="#43e97b" stroke-width="2" stroke-linecap="round" stroke-linejoin="round"/>
  <polyline points="105,59 107,62 112,56" fill="none" stroke="#43e97b" stroke-width="2" stroke-linecap="round" stroke-linejoin="round"/>
  <polyline points="105,71 107,74 112,68" fill="none" stroke="#43e97b" stroke-width="2" stroke-linecap="round" stroke-linejoin="round"/>
  <polyline points="105,83 107,86 112,80" fill="none" stroke="#43e97b" stroke-width="2" stroke-linecap="round" stroke-linejoin="round"/>
  <!-- Big checkmark circle -->
  <circle cx="200" cy="80" r="18" fill="#43e97b" opacity="0.15"/>
  <polyline points="190,80 197,88 212,72" fill="none" stroke="#43e97b" stroke-width="3" stroke-linecap="round" stroke-linejoin="round"/>
</svg>
